<svg width="25" height="25" viewBox="0 0 100 100" version="1.1" xmlns="http://www.w3.org/2000/svg">
  <path fill="#e22c3b" stroke="#e22c3b" stroke-width="50" stroke-linejoin="round" d="M -0.0034133,0.00188209 99.999807,0 l 0,0 1.89e-4,100.00246 0,0 L 0,99.996314 l 0,0 0,0 z"></path>
  <path fill="#ffffff" d=" M 24.40 20.41 C 28.91 19.01 35.01 21.75 34.73 27.05 C 34.91 33.85 25.34 36.46 20.99 31.97 C 17.27 28.45 19.13 21.19 24.40 20.41 Z"></path>
  <path fill="#ffffff" d=" M 54.25 45.24 C 58.98 37.74 70.21 36.63 76.97 41.91 C 81.17 45.22 82.80 50.78 82.82 55.94 C 82.84 63.92 82.82 71.91 82.82 79.89 C 78.18 79.85 73.54 79.90 68.90 79.82 C 68.87 72.19 68.98 64.56 68.87 56.93 C 68.92 53.73 67.18 50.11 63.78 49.46 C 59.47 48.26 54.50 51.57 54.34 56.12 C 54.15 64.04 54.34 71.96 54.27 79.88 C 49.65 79.86 45.03 79.85 40.41 79.91 C 40.34 66.46 40.62 53.02 40.39 39.58 C 45.02 39.58 49.64 39.59 54.27 39.58 C 54.27 41.46 54.27 43.35 54.25 45.24 Z"></path>
  <path fill="#ffffff" d=" M 19.77 39.52 C 24.43 39.51 29.10 39.52 33.76 39.50 C 33.77 52.97 33.78 66.44 33.76 79.91 C 29.10 79.86 24.43 79.89 19.77 79.86 C 19.78 66.41 19.77 52.97 19.77 39.52 Z"></path>
</svg>
